<svg width="32" height="32" viewBox="0 0 32 32" fill="none" xmlns="http://www.w3.org/2000/svg">
<path d="M25.4533 16.7867C25.24 16.7867 25.0267 16.72 24.84 16.5733C19.4667 12.4267 12.52 12.4267 7.14668 16.5733C6.70668 16.9067 6.08001 16.8267 5.74668 16.4C5.41334 15.96 5.49334 15.3333 5.92001 15C12.04 10.2667 19.9467 10.2667 26.0533 15C26.4933 15.3333 26.5733 15.96 26.2267 16.4C26.0533 16.6533 25.76 16.7867 25.4533 16.7867Z" fill="#3661EB"/>
<path d="M29.3333 12.1467C29.12 12.1467 28.9067 12.08 28.72 11.9333C20.9867 5.96001 11 5.96001 3.28001 11.9333C2.84001 12.2667 2.21334 12.1867 1.88001 11.76C1.53334 11.3333 1.61334 10.6933 2.05334 10.36C10.52 3.81335 21.4667 3.81335 29.9467 10.36C30.3867 10.6933 30.4667 11.32 30.12 11.76C29.9333 12.0133 29.6267 12.1467 29.3333 12.1467Z" fill="#3661EB"/>
<path d="M22.9466 21.6533C22.7333 21.6533 22.52 21.5867 22.3333 21.44C18.4933 18.4667 13.52 18.4667 9.66664 21.44C9.22664 21.7733 8.59997 21.6933 8.26664 21.2667C7.9333 20.8267 8.0133 20.2 8.43997 19.8667C13.0266 16.32 18.96 16.32 23.5466 19.8667C23.9866 20.2 24.0666 20.8267 23.72 21.2667C23.5333 21.52 23.24 21.6533 22.9466 21.6533Z" fill="#3661EB"/>
<path d="M19.4666 26.5333C19.2533 26.5333 19.04 26.4667 18.8533 26.32C17.12 24.9733 14.8666 24.9733 13.1333 26.32C12.6933 26.6533 12.0666 26.5733 11.7333 26.1467C11.4 25.7067 11.48 25.08 11.9066 24.7467C14.3866 22.8267 17.5866 22.8267 20.0666 24.7467C20.5066 25.08 20.5866 25.7067 20.24 26.1467C20.0666 26.3867 19.7733 26.5333 19.4666 26.5333Z" fill="#3661EB"/>
</svg>
