<svg width="92" height="16" viewBox="0 0 92 16" fill="none" xmlns="http://www.w3.org/2000/svg">
<path d="M3.18 12.78H7.78V15H0.38V1.04H3.18V12.78ZM18.1197 12.34H12.5597L11.6397 15H8.69969L13.7197 1.02H16.9797L21.9997 15H19.0397L18.1197 12.34ZM17.3597 10.1L15.3397 4.26L13.3197 10.1H17.3597ZM28.6961 15.14C27.7228 15.14 26.8428 14.9733 26.0561 14.64C25.2828 14.3067 24.6694 13.8267 24.2161 13.2C23.7628 12.5733 23.5294 11.8333 23.5161 10.98H26.5161C26.5561 11.5533 26.7561 12.0067 27.1161 12.34C27.4894 12.6733 27.9961 12.84 28.6361 12.84C29.2894 12.84 29.8028 12.6867 30.1761 12.38C30.5494 12.06 30.7361 11.6467 30.7361 11.14C30.7361 10.7267 30.6094 10.3867 30.3561 10.12C30.1028 9.85333 29.7828 9.64667 29.3961 9.5C29.0228 9.34 28.5028 9.16667 27.8361 8.98C26.9294 8.71333 26.1894 8.45333 25.6161 8.2C25.0561 7.93333 24.5694 7.54 24.1561 7.02C23.7561 6.48667 23.5561 5.78 23.5561 4.9C23.5561 4.07333 23.7628 3.35333 24.1761 2.74C24.5894 2.12667 25.1694 1.66 25.9161 1.34C26.6628 1.00667 27.5161 0.84 28.4761 0.84C29.9161 0.84 31.0828 1.19333 31.9761 1.9C32.8828 2.59333 33.3828 3.56667 33.4761 4.82H30.3961C30.3694 4.34 30.1628 3.94667 29.7761 3.64C29.4028 3.32 28.9028 3.16 28.2761 3.16C27.7294 3.16 27.2894 3.3 26.9561 3.58C26.6361 3.86 26.4761 4.26667 26.4761 4.8C26.4761 5.17333 26.5961 5.48667 26.8361 5.74C27.0894 5.98 27.3961 6.18 27.7561 6.34C28.1294 6.48667 28.6494 6.66 29.3161 6.86C30.2228 7.12667 30.9628 7.39333 31.5361 7.66C32.1094 7.92667 32.6028 8.32667 33.0161 8.86C33.4294 9.39333 33.6361 10.0933 33.6361 10.96C33.6361 11.7067 33.4428 12.4 33.0561 13.04C32.6694 13.68 32.1028 14.1933 31.3561 14.58C30.6094 14.9533 29.7228 15.14 28.6961 15.14ZM43.9436 15L38.8636 8.78V15H36.0636V1.04H38.8636V7.3L43.9436 1.04H47.3236L41.5636 7.96L47.4836 15H43.9436ZM54.1453 15.14C53.172 15.14 52.292 14.9733 51.5053 14.64C50.732 14.3067 50.1186 13.8267 49.6653 13.2C49.212 12.5733 48.9786 11.8333 48.9653 10.98H51.9653C52.0053 11.5533 52.2053 12.0067 52.5653 12.34C52.9386 12.6733 53.4453 12.84 54.0853 12.84C54.7386 12.84 55.252 12.6867 55.6253 12.38C55.9986 12.06 56.1853 11.6467 56.1853 11.14C56.1853 10.7267 56.0586 10.3867 55.8053 10.12C55.552 9.85333 55.232 9.64667 54.8453 9.5C54.472 9.34 53.952 9.16667 53.2853 8.98C52.3786 8.71333 51.6386 8.45333 51.0653 8.2C50.5053 7.93333 50.0186 7.54 49.6053 7.02C49.2053 6.48667 49.0053 5.78 49.0053 4.9C49.0053 4.07333 49.212 3.35333 49.6253 2.74C50.0386 2.12667 50.6186 1.66 51.3653 1.34C52.112 1.00667 52.9653 0.84 53.9253 0.84C55.3653 0.84 56.532 1.19333 57.4253 1.9C58.332 2.59333 58.832 3.56667 58.9253 4.82H55.8453C55.8186 4.34 55.612 3.94667 55.2253 3.64C54.852 3.32 54.352 3.16 53.7253 3.16C53.1786 3.16 52.7386 3.3 52.4053 3.58C52.0853 3.86 51.9253 4.26667 51.9253 4.8C51.9253 5.17333 52.0453 5.48667 52.2853 5.74C52.5386 5.98 52.8453 6.18 53.2053 6.34C53.5786 6.48667 54.0986 6.66 54.7653 6.86C55.672 7.12667 56.412 7.39333 56.9853 7.66C57.5586 7.92667 58.052 8.32667 58.4653 8.86C58.8786 9.39333 59.0853 10.0933 59.0853 10.96C59.0853 11.7067 58.892 12.4 58.5053 13.04C58.1186 13.68 57.552 14.1933 56.8053 14.58C56.0586 14.9533 55.172 15.14 54.1453 15.14ZM64.3128 1.04V15H61.5128V1.04H64.3128ZM76.5792 1.04V3.3H72.8592V15H70.0592V3.3H66.3392V1.04H76.5792ZM87.1822 12.34H81.6222L80.7022 15H77.7622L82.7822 1.02H86.0422L91.0622 15H88.1022L87.1822 12.34ZM86.4222 10.1L84.4022 4.26L82.3822 10.1H86.4222Z" fill="white"/>
</svg>
